<svg xmlns="http://www.w3.org/2000/svg" viewBox="0 0 128 87" shape-rendering="crispEdges"><path fill="#151516" d="M61 0h3v16H61zM64 3h7v5H64zM71 5h1v5H71zM72 6h3v4H72zM68 8h3v1H68zM69 9h2v1H69zM60 14h1v3H60zM64 14h1v2H64zM48 15h7v1H48zM59 15h1v6H59zM65 15h4v1H65zM73 15h7v1H73zM48 16h3v1H48zM53 16h3v1H53zM58 16h1v5H58zM67 16h3v1H67zM72 16h3v1H72zM77 16h3v1H77zM29 17h3v15H29zM48 17h2v12H48zM54 17h4v4H54zM68 17h6v4H68zM78 17h2v22H78zM92 17h3v15H92zM32 19h1v5H32zM33 20h5v4H33zM95 20h7v2H95zM95 22h6v2H95zM38 23h1v3H38zM101 23h3v3H101zM36 24h2v2H36zM39 24h3v2H39zM99 24h2v2H99zM104 24h1v2H104zM50 26h28v3H50zM49 29h4v10H49zM75 29h3v10H75zM19 30h6v2H19zM27 30h2v2H27zM32 30h3v2H32zM38 30h7v2H38zM83 30h6v2H83zM95 30h6v2H95zM104 30h5v2H104zM19 32h2v10H19zM24 32h4v3H24zM34 32h2v3H34zM37 32h2v3H37zM43 32h6v7H43zM80 32h5v7H80zM89 32h5v3H89zM99 32h5v3H99zM107 32h2v10H107zM36 33h1v2H36zM56 33h2v2H56zM63 33h2v2H63zM69 33h2v2H69zM23 34h1v1H23zM53 38h22v1H53zM42 39h3v1H42zM52 39h7v1H52zM68 39h7v4H68zM83 39h2v31H83zM21 40h23v2H21zM53 40h6v2H53zM85 40h22v2H85zM20 42h5v1H20zM38 42h6v1H38zM53 42h5v1H53zM85 42h4v1H85zM102 42h6v1H102zM21 43h3v1H21zM41 43h4v1H41zM85 43h1v1H85zM103 43h4v1H103zM21 44h2v17H21zM42 44h3v26H42zM61 44h5v2H61zM104 44h3v8H104zM23 45h1v16H23zM26 45h1v3H26zM59 45h2v2H59zM66 45h3v2H66zM103 45h1v3H103zM24 46h2v2H24zM31 46h2v6H31zM56 46h3v2H56zM61 46h1v1H61zM69 46h3v2H69zM95 46h2v6H95zM102 46h1v2H102zM45 47h6v1H45zM52 47h4v1H52zM72 47h11v1H72zM85 47h1v1H85zM50 48h5v1H50zM72 48h5v1H72zM41 49h1v3H41zM51 49h2v26H51zM75 49h2v26H75zM39 50h2v2H39zM85 50h1v2H85zM13 51h8v2H13zM24 51h3v1H24zM33 51h6v1H33zM86 51h9v1H86zM97 51h1v1H97zM102 51h2v1H102zM107 51h8v2H107zM35 52h3v1H35zM90 52h2v7H90zM105 52h2v9H105zM13 53h2v20H13zM18 53h3v4H18zM35 53h2v6H35zM107 53h1v9H107zM112 53h3v5H112zM24 54h1v2H24zM61 54h5v21H61zM45 55h3v1H45zM50 55h1v2H50zM59 55h2v20H59zM66 55h3v20H66zM77 55h6v1H77zM104 55h1v3H104zM82 56h1v1H82zM85 56h1v3H85zM92 56h1v3H92zM103 56h1v1H103zM18 57h2v30H18zM28 57h7v2H28zM86 57h1v2H86zM93 57h6v2H93zM20 58h1v3H20zM112 58h2v4H112zM15 59h3v3H15zM28 59h3v10H28zM97 59h3v10H97zM110 59h2v3H110zM24 60h4v1H24zM100 60h5v1H100zM108 60h2v27H108zM27 61h1v1H27zM50 61h1v1H50zM113 62h1v11H113zM15 64h1v3H15zM17 64h1v4H17zM110 64h1v4H110zM112 64h1v4H112zM16 65h1v2H16zM50 65h1v2H50zM77 65h1v2H77zM82 65h1v2H82zM111 65h1v2H111zM20 67h5v2H20zM27 67h1v2H27zM40 67h2v3H40zM85 67h2v3H85zM95 67h1v2H95zM104 67h1v2H104zM107 67h1v2H107zM114 67h1v6H114zM25 68h2v1H25zM31 68h9v1H31zM50 68h1v11H50zM77 68h1v10H77zM82 68h1v2H82zM87 68h8v1H87zM96 68h1v1H96zM100 68h4v1H100zM105 68h2v1H105zM115 68h1v6H115zM12 69h1v4H12zM35 69h5v6H35zM45 69h5v1H45zM78 69h4v1H78zM87 69h5v6H87zM110 69h1v18H110zM112 69h1v4H112zM9 70h3v10H9zM15 70h3v3H15zM40 70h1v1H40zM92 70h1v9H92zM111 70h1v3H111zM116 70h2v17H116zM118 71h1v10H118zM17 73h1v14H17zM34 73h1v6H34zM40 73h1v2H40zM49 73h1v9H49zM53 73h1v2H53zM55 73h1v2H55zM58 73h1v2H58zM74 73h1v2H74zM93 73h4v6H93zM31 74h3v5H31zM54 74h1v1H54zM56 74h2v1H56zM69 74h5v1H69zM78 74h1v8H78zM20 75h3v1H20zM30 75h1v4H30zM47 75h2v7H47zM51 75h1v3H51zM76 75h1v3H76zM79 75h2v7H79zM106 75h2v1H106zM25 76h5v3H25zM97 76h5v3H97zM24 77h1v10H24zM52 77h24v1H52zM102 77h1v10H102zM5 78h4v2H5zM4 79h1v8H4zM25 79h4v8H25zM32 79h1v8H32zM42 79h1v8H42zM85 79h1v1H85zM95 79h1v8H95zM99 79h3v8H99zM119 79h4v1H119zM5 80h2v7H5zM10 80h7v7H10zM20 80h4v7H20zM103 80h5v7H103zM111 80h5v7H111zM121 80h3v7H121zM43 81h4v4H43zM50 81h28v1H50zM81 81h5v4H81zM7 82h3v5H7zM47 82h1v3H47zM80 82h1v3H80zM118 82h1v5H118zM0 83h4v4H0zM29 83h3v4H29zM33 83h9v4H33zM86 83h9v4H86zM96 83h3v4H96zM119 83h2v4H119zM124 83h4v4H124zM48 84h32v1H48zM43 85h2v2H43zM84 85h2v2H84zM83 86h1v1H83z"/><path fill="#5e5f5f" d="M51 16h2v1H51zM61 16h6v1H61zM75 16h2v1H75zM50 17h1v9H50zM67 17h1v4H67zM77 17h1v9H77zM54 21h6v1H54zM68 21h6v1H68zM53 29h1v1H53zM74 29h1v9H74zM23 32h1v2H23zM42 32h1v7H42zM53 32h6v1H53zM63 32h2v1H63zM69 32h3v1H69zM88 32h1v3H88zM94 32h1v3H94zM104 32h1v3H104zM39 33h1v2H39zM58 33h1v2H58zM65 33h1v2H65zM71 33h1v2H71zM23 35h5v1H23zM21 38h1v2H21zM106 38h1v2H106zM22 39h8v1H22zM75 39h1v1H75zM82 39h1v8H82zM85 39h4v1H85zM103 39h3v1H103zM44 40h1v3H44zM52 40h1v3H52zM25 42h1v2H25zM58 42h1v1H58zM89 42h1v1H89zM24 43h1v1H24zM38 43h3v1H38zM86 43h3v1H86zM102 43h1v1H102zM23 44h1v1H23zM41 44h1v2H41zM60 44h1v1H60zM66 44h1v1H66zM85 44h1v3H85zM103 44h1v1H103zM24 45h2v1H24zM27 45h1v2H27zM31 45h2v1H31zM57 45h2v1H57zM69 45h1v1H69zM95 45h2v1H95zM102 45h1v1H102zM33 46h1v5H33zM54 46h2v1H54zM62 46h1v1H62zM65 46h1v1H65zM72 46h1v1H72zM97 46h1v5H97zM51 47h1v1H51zM59 47h1v1H59zM68 47h1v1H68zM101 47h1v1H101zM24 48h1v1H24zM40 48h2v1H40zM55 48h2v1H55zM71 48h1v1H71zM77 48h1v1H77zM82 48h1v7H82zM85 48h1v2H85zM102 48h2v1H102zM38 49h3v1H38zM50 49h1v6H50zM74 49h1v24H74zM103 49h1v2H103zM24 50h2v1H24zM36 50h3v1H36zM86 50h6v1H86zM102 50h1v1H102zM28 51h3v1H28zM98 51h4v1H98zM24 52h1v2H24zM41 52h1v1H41zM71 52h1v1H71zM85 52h1v4H85zM15 53h3v1H15zM37 53h1v6H37zM63 53h2v1H63zM108 53h4v1H108zM25 54h1v3H25zM60 54h1v1H60zM66 54h2v1H66zM77 54h1v1H77zM109 54h1v6H109zM48 55h2v2H48zM58 55h1v18H58zM102 55h2v1H102zM110 55h2v4H110zM15 56h3v1H15zM24 56h1v4H24zM28 56h7v1H28zM45 56h3v1H45zM77 56h5v1H77zM86 56h2v1H86zM89 56h1v3H89zM93 56h7v1H93zM102 56h1v1H102zM108 56h1v4H108zM17 57h1v2H17zM20 57h1v1H20zM50 57h1v4H50zM82 57h1v8H82zM87 57h1v2H87zM99 57h1v2H99zM15 58h2v1H15zM25 58h1v2H25zM38 58h4v1H38zM88 58h1v1H88zM104 58h1v2H104zM26 59h2v1H26zM85 59h1v8H85zM102 59h2v1H102zM20 61h7v1H20zM77 61h1v4H77zM100 61h7v1H100zM31 62h1v2H31zM50 62h1v3H50zM110 62h1v2H110zM112 62h1v2H112zM16 64h1v1H16zM111 64h1v1H111zM78 65h3v2H78zM107 65h1v2H107zM15 67h2v1H15zM25 67h2v1H25zM31 67h9v1H31zM50 67h1v1H50zM82 67h1v1H82zM87 67h8v1H87zM96 67h1v1H96zM100 67h4v1H100zM106 67h1v1H106zM111 67h1v1H111zM17 68h1v2H17zM45 68h5v1H45zM78 68h1v1H78zM80 68h1v1H80zM110 68h1v1H110zM112 68h1v1H112zM15 69h2v1H15zM34 69h1v4H34zM111 69h1v1H111zM49 70h1v3H49zM78 70h1v1H78zM86 70h1v1H86zM93 70h1v3H93zM40 71h1v2H40zM53 72h1v1H53zM55 72h1v1H55zM69 72h1v2H69zM71 72h1v2H71zM12 73h5v1H12zM30 73h4v1H30zM54 73h1v1H54zM56 73h2v1H56zM70 73h1v1H70zM72 73h2v1H72zM78 73h1v1H78zM111 73h4v1H111zM20 74h3v1H20zM30 74h1v1H30zM41 74h8v1H41zM79 74h6v1H79zM86 74h1v1H86zM106 74h2v1H106zM115 74h1v6H115zM16 75h1v5H16zM23 75h2v2H23zM29 75h1v1H29zM52 75h1v1H52zM105 75h1v1H105zM20 76h3v1H20zM102 76h1v1H102zM106 76h2v1H106zM12 77h4v1H12zM23 77h1v3H23zM35 77h1v2H35zM91 77h1v3H91zM111 77h2v1H111zM38 78h1v1H38zM51 78h27v1H51zM84 78h1v2H84zM12 79h4v1H12zM20 79h3v1H20zM29 79h3v1H29zM33 79h1v1H33zM41 79h1v1H41zM50 79h1v2H50zM81 79h1v2H81zM83 79h1v1H83zM86 79h3v1H86zM92 79h3v1H92zM96 79h3v1H96zM103 79h5v1H103zM111 79h4v1H111zM7 80h1v2H7zM9 80h1v2H9zM31 80h1v3H31zM43 80h4v1H43zM51 80h3v1H51zM76 80h2v1H76zM85 80h1v1H85zM119 80h2v1H119zM41 81h1v2H41zM86 81h1v2H86zM118 81h1v1H118zM39 82h2v1H39zM48 82h1v2H48zM79 82h1v2H79zM96 82h1v1H96zM119 82h2v1H119zM49 83h2v1H49zM76 83h3v1H76zM45 85h1v2H45zM83 85h1v1H83zM46 86h7v1H46zM76 86h7v1H76z"/><path fill="#9e9e9e" d="M53 17h1v5H53zM60 17h1v5H60zM74 17h1v1H74zM74 19h1v2H74zM67 21h1v1H67zM51 23h1v3H51zM76 23h1v3H76zM52 24h2v2H52zM75 24h1v2H75zM54 25h1v1H54zM72 25h3v1H72zM54 29h20v1H54zM53 30h6v2H53zM21 32h1v1H21zM28 32h1v7H28zM33 32h1v1H33zM65 32h1v1H65zM106 32h1v6H106zM53 33h3v1H53zM62 33h1v2H62zM21 34h2v4H21zM33 34h1v1H33zM53 34h1v4H53zM85 34h1v5H85zM34 35h6v1H34zM56 35h3v1H56zM63 35h2v1H63zM69 35h3v1H69zM86 35h9v1H86zM99 35h7v1H99zM23 36h5v3H23zM86 36h1v1H86zM104 36h1v3H104zM54 37h20v1H54zM103 37h1v2H103zM105 37h1v2H105zM22 38h1v1H22zM29 38h1v1H29zM86 38h3v1H86zM99 38h1v2H99zM30 39h12v1H30zM45 39h7v1H45zM59 39h9v1H59zM76 39h6v1H76zM89 39h10v1H89zM100 39h3v1H100zM75 40h1v3H75zM26 42h2v3H26zM49 42h3v1H49zM62 42h1v2H62zM67 42h1v1H67zM77 42h4v1H77zM100 42h2v5H100zM28 43h1v8H28zM45 43h3v4H45zM63 43h1v1H63zM80 43h1v4H80zM89 43h1v7H89zM24 44h2v1H24zM38 44h3v4H38zM59 44h1v1H59zM67 44h1v1H67zM86 44h3v6H86zM90 44h2v2H90zM102 44h1v1H102zM30 45h1v6H30zM33 45h1v1H33zM56 45h1v1H56zM70 45h1v1H70zM97 45h1v1H97zM41 46h1v2H41zM48 46h1v1H48zM53 46h1v1H53zM63 46h2v1H63zM73 46h1v1H73zM79 46h1v1H79zM81 46h1v1H81zM27 47h1v4H27zM60 47h1v1H60zM67 47h1v1H67zM100 47h1v2H100zM25 48h2v2H25zM37 48h3v1H37zM45 48h5v1H45zM57 48h1v1H57zM70 48h1v1H70zM78 48h4v1H78zM90 48h1v2H90zM101 48h1v1H101zM24 49h1v1H24zM37 49h1v1H37zM53 49h1v1H53zM62 49h4v2H62zM77 49h1v5H77zM102 49h1v1H102zM26 50h1v1H26zM29 50h1v1H29zM34 50h2v1H34zM59 50h3v1H59zM66 50h3v1H66zM92 50h3v1H92zM98 50h4v1H98zM45 51h3v4H45zM56 51h4v1H56zM68 51h4v1H68zM25 52h4v2H25zM31 52h4v1H31zM38 52h3v6H38zM55 52h3v1H55zM72 52h1v21H72zM86 52h4v1H86zM92 52h13v1H92zM34 53h1v3H34zM41 53h1v5H41zM55 53h2v19H55zM62 53h1v1H62zM65 53h1v1H65zM71 53h1v19H71zM80 53h2v2H80zM86 53h2v3H86zM89 53h1v3H89zM92 53h1v3H92zM94 53h1v1H94zM104 53h1v2H104zM15 54h3v2H15zM26 54h3v2H26zM59 54h1v1H59zM68 54h1v1H68zM78 54h2v1H78zM102 54h2v1H102zM108 54h1v2H108zM110 54h2v1H110zM69 55h1v17H69zM101 55h1v5H101zM26 56h2v3H26zM88 56h1v2H88zM100 56h1v4H100zM15 57h2v1H15zM25 57h1v1H25zM77 57h1v4H77zM102 57h2v1H102zM102 58h1v1H102zM31 61h11v1H31zM45 61h5v3H45zM53 61h1v11H53zM86 61h8v4H86zM15 62h3v2H15zM32 62h10v3H32zM96 62h1v5H96zM107 62h1v3H107zM111 62h1v2H111zM94 63h2v4H94zM20 64h8v3H20zM31 64h1v1H31zM45 64h4v4H45zM102 64h5v3H102zM38 65h4v2H38zM49 65h1v3H49zM81 65h1v4H81zM86 65h4v2H86zM100 65h2v2H100zM31 66h1v1H31zM92 66h2v1H92zM78 67h1v1H78zM80 67h1v1H80zM15 68h2v1H15zM111 68h1v1H111zM20 69h4v1H20zM31 69h3v1H31zM92 69h5v1H92zM106 69h2v5H106zM20 70h3v4H20zM33 70h1v3H33zM41 70h8v1H41zM79 70h7v1H79zM94 70h4v3H94zM23 71h1v4H23zM32 71h1v2H32zM54 71h1v2H54zM78 71h1v2H78zM86 71h1v3H86zM24 72h8v1H24zM56 72h2v1H56zM73 72h1v1H73zM98 72h8v3H98zM24 73h6v2H24zM41 73h6v1H41zM48 73h1v1H48zM79 73h7v1H79zM97 73h1v3H97zM12 74h5v1H12zM85 74h1v1H85zM111 74h4v3H111zM12 75h4v2H12zM25 75h4v1H25zM35 75h1v2H35zM46 75h1v5H46zM53 75h23v1H53zM81 75h1v4H81zM91 75h1v2H91zM98 75h7v1H98zM52 76h2v1H52zM75 76h1v1H75zM103 76h3v3H103zM20 77h3v2H20zM36 77h10v1H36zM82 77h9v1H82zM106 77h2v2H106zM113 77h2v2H113zM12 78h4v1H12zM36 78h1v2H36zM39 78h7v1H39zM82 78h1v3H82zM85 78h6v1H85zM111 78h2v1H111zM34 79h2v1H34zM37 79h4v1H37zM43 79h3v1H43zM51 79h4v1H51zM73 79h5v1H73zM89 79h2v1H89zM8 80h1v2H8zM33 80h1v3H33zM41 80h1v1H41zM55 80h21v1H55zM83 80h2v1H83zM86 80h1v1H86zM88 80h1v3H88zM94 80h1v3H94zM96 80h1v2H96zM98 80h1v3H98zM29 81h2v2H29zM37 81h4v1H37zM87 81h1v2H87zM89 81h3v2H89zM119 81h2v1H119zM34 82h5v1H34zM49 82h4v1H49zM74 82h5v1H74zM92 82h1v1H92zM97 82h1v1H97zM51 83h25v1H51zM46 85h7v1H46zM76 85h7v1H76zM53 86h23v1H53z"/><path fill="#dedede" d="M51 17h2v6H51zM61 17h6v9H61zM75 17h2v6H75zM74 18h1v1H74zM74 21h1v4H74zM53 22h8v2H53zM67 22h7v3H67zM52 23h1v1H52zM75 23h1v1H75zM54 24h7v1H54zM55 25h6v1H55zM67 25h5v1H67zM59 30h15v2H59zM22 32h1v2H22zM29 32h4v6H29zM40 32h2v7H40zM59 32h3v5H59zM66 32h3v5H66zM72 32h2v5H72zM85 32h3v2H85zM95 32h4v7H95zM105 32h1v3H105zM21 33h1v1H21zM54 34h2v3H54zM86 34h2v1H86zM33 35h1v4H33zM62 35h1v2H62zM65 35h1v2H65zM34 36h6v3H34zM56 36h3v1H56zM63 36h2v1H63zM69 36h3v1H69zM87 36h8v2H87zM99 36h5v1H99zM105 36h1v1H105zM86 37h1v1H86zM99 37h4v1H99zM30 38h3v1H30zM89 38h6v1H89zM100 38h3v1H100zM45 40h7v2H45zM59 40h9v2H59zM76 40h6v2H76zM28 42h10v1H28zM45 42h4v1H45zM59 42h3v2H59zM63 42h4v1H63zM81 42h1v4H81zM91 42h9v2H91zM29 43h9v2H29zM48 43h11v2H48zM64 43h16v1H64zM90 43h1v1H90zM68 44h12v1H68zM92 44h8v1H92zM29 45h1v5H29zM34 45h4v3H34zM48 45h8v1H48zM71 45h9v1H71zM92 45h3v5H92zM98 45h2v5H98zM49 46h4v1H49zM74 46h5v1H74zM90 46h2v2H90zM61 47h6v2H61zM34 48h3v2H34zM58 48h3v2H58zM67 48h3v2H67zM91 48h1v2H91zM45 49h5v2H45zM54 49h4v2H54zM61 49h1v1H61zM66 49h1v1H66zM70 49h4v2H70zM78 49h4v4H78zM100 49h2v1H100zM53 50h1v11H53zM58 50h1v1H58zM48 51h2v4H48zM54 51h2v1H54zM61 51h7v2H61zM72 51h2v1H72zM29 52h1v4H29zM54 52h1v19H54zM58 52h3v2H58zM68 52h3v2H68zM73 52h1v20H73zM30 53h4v3H30zM57 53h1v19H57zM61 53h1v1H61zM66 53h2v1H66zM78 53h2v1H78zM88 53h1v3H88zM93 53h1v3H93zM95 53h9v1H95zM58 54h1v1H58zM69 54h2v1H69zM94 54h8v1H94zM70 55h1v18H70zM94 55h7v1H94zM45 57h5v4H45zM78 57h4v7H78zM31 59h11v2H31zM86 59h11v2H86zM94 61h3v1H94zM20 62h8v2H20zM94 62h2v1H94zM100 62h7v2H100zM49 64h1v1H49zM78 64h2v1H78zM81 64h1v1H81zM100 64h2v1H100zM31 65h6v1H31zM90 65h4v1H90zM32 66h5v1H32zM91 66h1v1H91zM79 67h1v1H79zM24 69h7v3H24zM97 69h9v1H97zM23 70h1v1H23zM31 70h2v1H31zM98 70h8v2H98zM31 71h1v1H31zM41 71h8v2H41zM79 71h7v2H79zM36 75h10v2H36zM82 75h9v2H82zM54 76h21v1H54zM55 79h18v1H55zM29 80h2v1H29zM34 80h7v1H34zM89 80h5v1H89zM97 80h1v1H97zM34 81h3v1H34zM92 81h2v1H92zM53 82h21v1H53zM93 82h1v1H93zM53 85h23v1H53z"/></svg>